<svg xmlns="http://www.w3.org/2000/svg" viewBox="0 0 44 44"><path d="M22.4 8.2c4.2 0 5.6 3.9 5.6 6.2 0 .5 0 .9-.1 1.4-.1 0-.1.1-.2.2s-.1.2-.2.3c-.9 1.3-1.5 1.8-2.7 2.1-.2-.2-.5-.3-.8-.3h-1.2c-.7 0-1.2.5-1.2 1.2s.5 1.2 1.2 1.2H24c.6 0 1.1-.4 1.2-1 .9-.2 1.5-.6 2.1-1.1-.9 2.4-2.5 3.3-2.5 3.3s-.2.3-.2 1.1c0 .2.1.7.3.9 1.8 1.4 8.3 2.9 8.8 6 .4 1.7 3.5 4.6-11.4 4.6-3.2 0-5.6-.1-7.4-.4-6.4-.8-4.5-2.9-4.2-4.2.4-3.1 6.9-4.6 8.7-6 .2-.2.5-.5.5-.7 0-.8-.4-1.2-.4-1.2s-3.2-2.1-3.2-7.3c.1-2.2 1.3-6.2 5.7-6.2l.4-.1z" fill="currentColor"/><path d="M14.4 14.3c0-1.1.2-2.1.6-3.1-2.5.4-3.2 2.9-3.3 4.4-.1 3.8 2.2 5.3 2.2 5.3s.3.3.3.9c0 .1-.3.4-.4.5-1.3 1.1-5.9 2.1-6.2 4.4-.2.8-1.1 2 1 2.7l.1-.2c0-.3.1-.3.1-.4.4-2.4 2.3-3.8 5.7-5.4.5-.2 2.1-.9 2.4-1 .1 0 .2-.1.3-.1-.3-.3-.6-.7-.9-1.1-1.2-1.8-1.9-4.1-1.9-6.9zm22.3 12.4c-.3-2.3-4.9-3.3-6.2-4.4-.1-.1-.2-.5-.2-.6 0-.6.1-.8.1-.8s2.2-1.3 2.2-5.3c-.1-1.4-.9-4-3.4-4.4.3 1.1.5 2.1.7 2.9v1.1c-.1.6-.1 1.1-.2 1.6s-.3 1.2-.6 2c-.3.9-.7 1.6-1.2 2.3-.2.4-.5.7-.8 1 0 0 .1.1.2.1.3.2 1.9.9 2.4 1.1 3.5 1.6 5.4 3.1 5.8 5.5 0 .1 0 .2.1.4.1.1.1.1.1.2 2.2-.7 1.2-1.9 1-2.7z"/></svg>
