<svg xmlns="http://www.w3.org/2000/svg" viewBox="0 0 44 44"><path fill="#934603" d="M37.7 21.4c3-.5 5.3-3.1 5.3-6.2 0-3.5-2.8-6.3-6.3-6.3-1.8 0-3.4.8-4.5 2 .2-.6.3-1.2.3-1.9 0-3.5-2.8-6.3-6.3-6.3S20 5.5 20 9s2.8 6.3 6.3 6.3c1.8 0 3.4-.8 4.5-2-.2.6-.3 1.2-.3 1.9 0 3.1 2.2 5.6 5.1 6.2-3 .5-5.3 3.1-5.3 6.2 0 3.5 2.8 6.3 6.3 6.3s6.3-2.8 6.3-6.3c-.1-3-2.3-5.6-5.2-6.2z"/><path d="M37.5 23.5v-.3c0-1.4-.2-2.8-.6-4.2-1.2-6.1-6.5-10.9-13-11.8-1.2-.2-2.4-.4-3.7-.4-9.6 0-17.7 7.9-17.7 16.9 0 .3 0 .7.1 1-1.4 1.4-1.6 2-1.6 3.6 0 4.3 6.2 8.6 11.6 10.1 2.3 1.1 4.8 1.1 7.6 1.1H22c8.4 0 15.7-5.8 15.7-14.4-.1-.5-.1-1.1-.2-1.6z" fill="#ffd21a"/><circle fill="#fff" cx="20.7" cy="21.5" r="4.8"/><ellipse transform="rotate(-153.075 8.212 21.401)" fill="#fff" cx="8.2" cy="21.4" rx="3" ry="4.1"/><ellipse fill="#eec000" cx="25.2" cy="26.8" rx="2.7" ry="1.4"/><ellipse fill="#eec000" cx="5.1" cy="26.1" rx="1.9" ry="1.2"/><circle fill="#eec000" cx="12.8" cy="25.7" r=".5"/><circle fill="#eec000" cx="11" cy="25.7" r=".5"/><path d="M21.2 19.4c-1.6 0-2.9 1.3-2.9 2.9s1.3 2.9 2.9 2.9 2.9-1.3 2.9-2.9-1.3-2.9-2.9-2.9zM20 22.6c-.5 0-.9-.4-.9-.9s.4-.9.9-.9.9.4.9.9-.4.9-.9.9zM8.6 19.4c-1.1 0-2 1.1-2 2.4s.9 2.4 2 2.4 2-1.1 2-2.4-.9-2.4-2-2.4zm-.4 2.5c-.4 0-.8-.4-.8-.8s.4-.8.8-.8.8.4.8.8-.4.8-.8.8z" fill="#5b2208"/><path fill="#934603" d="M15.8 34.9c-1.8 0-3.9-.9-6.3-2.8-.4-.3-.5-1-.2-1.4.3-.4 1-.5 1.4-.2 2.4 1.8 4.3 2.6 5.8 2.3 1.2-.3 2.4-1.3 3.4-3.1.3-.5.9-.6 1.4-.4.5.3.6.9.4 1.4-1.3 2.4-2.9 3.7-4.7 4.1-.5.1-.8.1-1.2.1z"/></svg>
