<svg xmlns="http://www.w3.org/2000/svg" viewBox="0 0 50 50"><path d="M25 5.8c17.9 0 24.8 16.4 25 27.5S38.3 50 27.9 50 12 49.3 4.8 43.8s-4-20.5 1-27.3S18 5.8 25 5.8z" fill="#ffd21a"/><path d="M25 5.8c1.4 0 2.7.1 3.9.3-.2-3.5-1.6-6.1-3.3-6.1-1.7 0-3.1 2.6-3.3 6 .9-.1 1.8-.2 2.7-.2z" fill="#934603"/><path d="M18.2 34.8c-1.6 0-2.2.5-1.2 3.1s3.3 5.6 9 5.6c6.2-.4 8-5.2 8.4-6.9.3-1.7-.5-1.7-1.2-1.7s-15-.1-15-.1z" fill="#922300"/><ellipse fill="#eec000" class="st3" cx="9.4" cy="33" rx="4.3" ry="1.9"/><ellipse fill="#eec000" class="st3" cx="41.2" cy="33" rx="4.1" ry="1.9"/><circle fill="#eec000" class="st3" cx="27.1" cy="32.2" r=".6"/><circle fill="#eec000" class="st3" cx="24.1" cy="32.2" r=".6"/><path d="M14.2 21.4c-2.1.1-4.4 1.7-5.2 4.3-.8 2.6-.2 4.2 0 4.2.6 0 .7-.9 1.2-2.5s2-4 4.3-4 3.9 1.6 4.5 4c.6 2.4.9 2.5 1.3 2.5s.8-1.3-.2-4.5-3.8-4.1-5.9-4zm27.9 4c-1-3.2-3.8-4.1-5.9-4-2 .1-4.4 1.8-5.1 4.4-.9 2.5-.3 4.1-.1 4.1.6 0 .7-.9 1.2-2.5s2-4 4.3-4 3.9 1.6 4.5 4c.6 2.4.9 2.5 1.3 2.5s.8-1.3-.2-4.5z" fill="#5b2208"/><path d="M25.1 39.3c-2.6 0-4.9.6-6.4 1.5 1.4 1.6 3.7 2.8 7.3 2.8 2.7-.2 4.6-1.2 5.9-2.5-1.5-1.1-4-1.8-6.8-1.8z" fill="#ca5409"/><path d="M22.1 34.8c.1 1.3.8 2.4 1.8 2.4.7 0 1.2-.5 1.6-1.2.3.7.9 1.2 1.6 1.2 1 0 1.8-1.1 1.8-2.4h-6.8z" fill="#fff"/></svg>
