<svg xmlns="http://www.w3.org/2000/svg" viewBox="0 0 50 50"><path d="M24.8 5.7c17.9 0 25.1 16.4 25.2 27.5S38 50 27.6 50s-15.9-.7-23.1-6.2-4-20.5 1-27.3S17.7 5.7 24.8 5.7z" fill="#ffd21a"/><path d="M24.8 5.7c1.3 0 2.6.1 3.8.3-.3-3.4-1.7-6-3.3-6-1.7 0-3 2.5-3.3 5.9.9-.1 1.9-.2 2.8-.2z" fill="#934603"/><ellipse fill="#eec000" cx="9.2" cy="33" rx="4.3" ry="1.9"/><ellipse fill="#eec000" cx="41" cy="33" rx="4.1" ry="1.9"/><circle fill="#eec000" cx="26.9" cy="32.2" r=".6"/><circle fill="#eec000" cx="23.9" cy="32.2" r=".6"/><path d="M17.4 19.7l-8.5 4.4c-.2.6-.3 1.3-.3 1.9A6.7 6.7 0 0 0 22 26c0-2.9-1.9-5.5-4.6-6.3zm24.4 4.5l-9-4.4c-2.4 1-4.2 3.4-4.2 6.2A6.7 6.7 0 0 0 42 26c0-.6-.1-1.2-.2-1.8z" fill="#fff"/><path fill="#5b2208" d="M16.3 23.5c-1.9 0-3.5 1.6-3.5 3.5s1.6 3.5 3.5 3.5 3.5-1.6 3.5-3.5-1.6-3.5-3.5-3.5zm1 5.6c-.6 0-1.1-.5-1.1-1.1 0-.6.5-1.1 1.1-1.1.6 0 1.1.5 1.1 1.1 0 .6-.5 1.1-1.1 1.1zm16-5.6c-1.9 0-3.5 1.6-3.5 3.5s1.6 3.5 3.5 3.5 3.5-1.6 3.5-3.5-1.6-3.5-3.5-3.5zm-1 5.6c-.6 0-1.1-.5-1.1-1.1 0-.6.5-1.1 1.1-1.1.6 0 1.1.5 1.1 1.1 0 .6-.5 1.1-1.1 1.1z"/><path fill="#5b2208" d="M19.2 40.9c-.1 0-.2 0-.3-.1-.2-.2-.3-.5-.1-.7 2-2.8 3-4 6-4s5.2 2.1 6 4c.1.3 0 .5-.3.6s-.5 0-.6-.3c-.6-1.6-2.5-3.3-5-3.3-2.6 0-3.3.8-5.2 3.6-.2.1-.3.2-.5.2z"/></svg>
