<svg xmlns="http://www.w3.org/2000/svg" viewBox="0 0 50 50"><path d="M24.4 5.7c17.9 0 25.3 16.4 25.5 27.5C50 44.3 37.6 50 27.2 50S11 49.8 4.1 43.8c-6.2-6.1-4-20.5 1-27.3S17.3 5.7 24.4 5.7z" fill="#ffd21a"/><path d="M24.4 5.7c1.4 0 2.7.1 3.9.3-.3-3.4-1.7-6-3.3-6-1.7 0-3 2.5-3.3 5.9.9-.1 1.8-.2 2.7-.2z" fill="#934603"/><ellipse fill="#eec000" cx="8.8" cy="33" rx="4.3" ry="1.9"/><ellipse fill="#eec000" cx="40.6" cy="33" rx="4.1" ry="1.9"/><circle fill="#eec000" cx="26.5" cy="32.2" r=".6"/><circle fill="#eec000" cx="23.5" cy="32.2" r=".6"/><path d="M17.6 34.8c-1.6 0-2.2.5-1.2 3.1s3.3 5.6 9 5.6c6.2-.4 8-5.2 8.4-6.9.3-1.7-.5-1.7-1.2-1.7-.6-.1-15-.1-15-.1z" fill="#922300"/><path d="M24.4 39.2c-2.6 0-4.9.6-6.4 1.5 1.4 1.6 3.7 2.8 7.3 2.8 2.7-.2 4.6-1.2 5.9-2.5-1.4-1-3.9-1.8-6.8-1.8z" fill="#ca5409"/><path fill="#fff" d="M21.5 34.8c.1 1.3.8 2.4 1.8 2.4.7 0 1.2-.5 1.6-1.2.3.7.9 1.2 1.6 1.2 1 0 1.8-1.1 1.8-2.4h-6.8z"/><circle fill="#fff" class="st5" cx="35" cy="26" r="6.7"/><circle fill="#fff" cx="15" cy="26" r="6.7"/><path d="M16 23.5c-1.9 0-3.5 1.6-3.5 3.5s1.6 3.5 3.5 3.5 3.5-1.6 3.5-3.5-1.6-3.5-3.5-3.5zm-1 3.6c-.6 0-1.1-.5-1.1-1.1s.5-1.1 1.1-1.1 1.1.5 1.1 1.1-.5 1.1-1.1 1.1zm18-3.6c-1.9 0-3.5 1.6-3.5 3.5s1.6 3.5 3.5 3.5 3.5-1.6 3.5-3.5-1.6-3.5-3.5-3.5zm-1 3.6c-.6 0-1.1-.5-1.1-1.1s.5-1.1 1.1-1.1 1.1.5 1.1 1.1-.5 1.1-1.1 1.1z" fill="#5b2208"/></svg>
