<svg xmlns="http://www.w3.org/2000/svg" viewBox="0 0 18 18"><path fill="currentColor" d="M11.3 13.7c-.7.3-1.4.5-2.2.5-2.6 0-4.6-1.9-4.6-4.2 0-.4-.3-.8-.8-.8s-.8.4-.8.8c0 2.8 2.2 5.1 5 5.6l.1.1v.2c0 .7.3 1.2 1 1.2s1-.5 1-1.2v-.2l.1-.1c.8-.1 1.6-.5 2.2-.9l-1-1z"/><path d="M8.9 13h.2c.4 0 .9-.1 1.3-.2L5 7.4v1.7C5 11.2 6.8 13 8.9 13z"/><path d="M16.8 14.9l-2.3-2.3c.4-.8.7-1.6.7-2.6 0-.4-.3-.8-.8-.8-.4 0-.8.3-.8.8s-.1 1-.3 1.5l-.8-.8c.2-.5.4-1 .4-1.6V5.9C13 3.8 11.2 2 9.1 2h-.2c-1.3 0-2.5.7-3.2 1.7L4.1 2.1c-.3-.2-.8-.2-1.1 0s-.3.8 0 1.1l12.7 12.7c.3.3.8.3 1.1 0 .3-.3.3-.7 0-1z"/></svg>
