<svg xmlns="http://www.w3.org/2000/svg" viewBox="0 0 18 18"><path d="M14.7 10H3.4c-.3 0-.6.3-.6.6v5.7c0 .4.3.7.6.7h11.3c.3 0 .6-.3.6-.6v-5.7c0-.4-.3-.7-.6-.7zm-5 6.1c0 .2-.1.3-.3.3h-.7c-.2 0-.3-.1-.3-.3V11c0-.2.1-.3.3-.3h.6c.2 0 .3.1.3.3v5.1z" fill="currentColor"/><path d="M15.3 5.1H11l1.1-.3c.4 0 .8-.1 1.1-.5.8-.7.9-1.9.2-2.7-.7-.8-1.9-.9-2.7-.2-.3.2-.5.5-.6.9l-1 2.4-1.2-2.4c-.1-.3-.3-.6-.6-.8-.8-.7-2-.5-2.7.2-.6.8-.5 2 .3 2.6.3.3.7.4 1.1.5l1.1.3H2.8c-.3 0-.7.3-.7.6v2.7c0 .3.3.6.6.6h12.5c.3 0 .6-.3.6-.6V5.7c.2-.4-.2-.6-.5-.6zm-4.2-2.7c.1-.1.1-.1 0 0 .1-.1.2-.3.3-.3.4-.3 1-.3 1.3.1.3.4.3 1-.1 1.3-.1.1-.1.1-.3.1l-2.2.8 1-2zM5.7 3.6c-.1 0-.1-.1-.2-.1-.4-.4-.4-1-.1-1.4s.9-.5 1.3-.1c.1.1.1.1.2.3v.1l.9 2.1-2.1-.9zm4 4.4c0 .2-.1.3-.3.3h-.7c-.2 0-.3-.1-.3-.3V6c0-.2.1-.3.3-.3h.6c.2 0 .3.1.3.3v2z"/></svg>
