<svg xmlns="http://www.w3.org/2000/svg" viewBox="0 0 24 24"><linearGradient id="a" gradientUnits="userSpaceOnUse" x1="-438.476" y1="308.07" x2="-437.863" y2="306.908" gradientTransform="matrix(14.0192 0 0 -16.875 6157.98 5202.25)"><stop offset="0" stop-color="#ffe6c9"/><stop offset="1" stop-color="#ffb896"/></linearGradient><path d="M12.9 5.2l.6-1.6c.5-1.3 1.7-2.1 3-2.1 1 0 1.8.8 1.8 1.8 0 .1 0 .3-.1.4l-.7 2.9c-.1.4.1.8.5.9h4.1c1 0 1.9.8 1.9 1.9v.3l-2 10.5c-.2.9-.9 1.5-1.8 1.5H9.3c-1 0-1.8-.8-1.9-1.8L7.2 9.4c0-1 .8-1.9 1.8-1.9h.5c1.5 0 2.8-.9 3.4-2.3z" fill="url(#a)"/><linearGradient id="b" gradientUnits="userSpaceOnUse" x1="-380.27" y1="315.435" x2="-379.971" y2="314.235" gradientTransform="matrix(4.6875 0 0 -11.5625 1784.75 3656.313)"><stop offset="0" stop-color="#90e3ff"/><stop offset="1" stop-color="#18a2ff"/></linearGradient><path d="M1.1 7.9h3.4c.6 0 1.1.5 1.1 1.1v11.6c0 .6-.5 1.1-1.1 1.1H1.1c-.6 0-1.1-.5-1.1-1.1V9c0-.6.5-1.1 1.1-1.1z" fill="url(#b)"/><linearGradient id="c" gradientUnits="userSpaceOnUse" x1="-140.312" y1="340.302" x2="-139.622" y2="339.102" gradientTransform="matrix(1.25 0 0 -5.625 177.25 1923.813)"><stop offset="0" stop-color="#fff" stop-opacity=".9"/><stop offset="1" stop-color="#fff" stop-opacity=".15"/></linearGradient><path d="M2.1 9.4h.4c.2 0 .5.2.5.5v3c0 .3-.3.6-.6.6h-.3c-.3 0-.6-.3-.6-.6v-3c0-.3.3-.5.6-.5zm.2 6.7c-.4 0-.7-.3-.7-.8 0-.4.3-.8.7-.8s.7.5.7.9-.3.7-.7.7z" fill="url(#c)"/></svg>