<svg xmlns="http://www.w3.org/2000/svg" viewBox="0 0 100 100"><circle cx="50" cy="50" r="49" opacity=".06"/><path d="M15.2 84.5c1.8-4 5.7-7 10.3-7.5L50 73l25.6 4c4.3.5 7.9 3.2 9.9 6.8C76.6 93.2 64 99 50 99c-13.6 0-25.9-5.6-34.8-14.5z" fill="#575857"/><path d="M57 67.3V79H43V67.2C37.8 64.5 33.8 59 32 52h-.5c-3 0-5.4-2.3-5.5-5.3s2.1-5.5 5.1-5.7c.5-12.4 4.7-22 18.9-22s18.4 9.6 18.9 22c2.9.2 5.2 2.8 5.1 5.7S71.5 52 68.5 52H68c-1.8 7-5.8 12.6-11 15.3z" fill="#f1d9c8"/><path d="M29.3 25.6c1.2-7 6.1-12.8 12.5-15.2 2.1-.9 4.4-1.4 6.6-1.4 5.1 0 9.7 2.2 12.9 5.8.3.4.7.6 1.2.6 4.7.5 8.4 4.5 8.5 9.3 0 1.7-.3 5.1-.8 10.1-.5 4.5-1 7.9-1.5 10.2-.1.4-.5.7-.9.7s-.7-.3-.7-.6V31.8c0-3.2-2.5-5.9-5.6-6h-.7c-1.5 0-2.9.5-4 1.5-1.4 1.4-3.2 2.2-5.2 2.2-1.8 0-3.6-.7-4.9-1.9l.1.1c-2.5-1.9-5.9-2.3-8.7-.9-2.9 1.3-4.7 4.2-4.8 7.3v11.2c-.1.4-.5.8-.9.8-.5 0-1-.4-1-.9l-1.5-10.3c-.6-2.1-.9-4.3-.8-6.5v.2-.4c0-1 0-1.8.2-2.6z" fill="#663d1c"/><path d="M51.4 83l3.1 15.8c-1.5.1-3 .2-4.6.2-1.5 0-3.1-.1-4.6-.2L48.6 83 46 79.4l4-3.4 4 3.4-2.6 3.6z" fill="#f6b386"/><path fill="#fff" d="M63 74.4L57.1 69 50 76.1 42.9 69 37 74.4l7.4 8.3 5.6-6.6 5.7 6.6z"/></svg>