<svg xmlns="http://www.w3.org/2000/svg" viewBox="0 0 44 44"><path d="M18.2 16h-3.5l.3 2h3.3c.7.1 1.2.8 1.2 1.5s-.6 1.5-1.3 1.5h-2.8c.6 3 3.4 5 6.6 5h.2c3.1 0 5.8-2 6.5-5h-2.8c-.7 0-.9-1-.9-1.7v-.1c0-.7.2-1.2.9-1.2h3.2l.3-2h-3.6c-.7 0-1.2-.8-1.2-1.5s.6-1.5 1.3-1.5h3.5c-.3-1.5-1.2-2.8-2.5-3.6l-.9-.7c-2.4-1.6-5.5-1.6-7.9 0l-.9.6c-1.3.9-2.2 2.2-2.5 3.7h3.6c.7.1.7.6.7 1.3v.1c0 .7-.2 1.6-.8 1.6z"/><path d="M32.5 19.2c-.8-.1-1.6.4-1.7 1.2-.4 2.3-1.6 4.3-3.4 5.7C25.8 27.4 24 28 22 28c-4.3 0-8-3.2-8.7-7.5-.1-.8-.9-1.4-1.7-1.2-.8.1-1.3.9-1.1 1.7.9 5.3 4.5 9.3 10.5 9.9V34h-2.6c-1 0-1.8.4-2.1 1.3 0 .1-.1.4-.1.5 0 .6.5 1.2 1.1 1.2h9.9c.1 0 .3-.2.4-.3.6-.2.9-.8.7-1.3-.3-.9-1.2-1.4-2.1-1.4H24v-3.2c2-.3 3.8-1.1 5.4-2.3 2.4-1.9 3.9-4.6 4.4-7.6.2-.8-.5-1.5-1.3-1.7z" fill="currentColor"/></svg>
