<svg xmlns="http://www.w3.org/2000/svg" viewBox="0 0 44 44"><path fill="#934603" d="M37.7 21.4c3-.5 5.3-3.1 5.3-6.2 0-3.5-2.8-6.3-6.3-6.3-1.8 0-3.4.8-4.5 2 .2-.6.3-1.2.3-1.9 0-3.5-2.8-6.3-6.3-6.3S20 5.5 20 9s2.8 6.3 6.3 6.3c1.8 0 3.4-.8 4.5-2-.2.6-.3 1.2-.3 1.9 0 3.1 2.2 5.6 5.1 6.2-3 .5-5.3 3.1-5.3 6.2 0 3.5 2.8 6.3 6.3 6.3s6.3-2.8 6.3-6.3c-.1-3-2.3-5.6-5.2-6.2z"/><path d="M37.5 23.5v-.3c0-1.4-.2-2.8-.6-4.2-1.2-6.1-6.5-10.9-13-11.8-1.2-.2-2.4-.4-3.7-.4-9.6 0-17.7 7.9-17.7 16.9 0 .3 0 .7.1 1-1.4 1.4-1.6 2-1.6 3.6 0 4.3 6.2 8.6 11.6 10.1 2.3 1.1 4.8 1.1 7.6 1.1H22c8.4 0 15.7-5.8 15.7-14.4-.1-.5-.1-1.1-.2-1.6z" fill="#ffd21a"/><ellipse fill="#eec000" cx="25.2" cy="26.8" rx="2.7" ry="1.4"/><ellipse fill="#eec000" cx="5.1" cy="26.1" rx="1.9" ry="1.2"/><circle fill="#eec000" cx="12.8" cy="25.7" r=".5"/><circle fill="#eec000" cx="11" cy="25.7" r=".5"/><path d="M25.4 28.8c-8.2 2-13.5 1.6-19.6-.5-1.1-.2-1.5 1.1.5 3.2s4.2 3.9 8.5 4c4.3.1 8.8-2.6 10.2-4s2.3-3.1.4-2.7z" fill="#fefffe"/><path d="M18.3 35.2c.1 0 .3-.1.4-.1L19 30h-.4l-.3 5.2zm-2 .4h.4l.2-5.4h-.4l-.2 5.4zm-2.8 0h.4l.2-5.5h-.4l-.2 5.5zm-2.1-.5c.1 0 .3.1.4.1l.2-5.3c-.1 0-.3 0-.4-.1l-.2 5.3zm-3-1.5c.1.1.2.2.4.3l.2-4.6c-.1 0-.3-.1-.4-.1l-.2 4.4zm-1.9-1.8c.1.1.2.3.4.4l.1-3.4c-.1 0-.3-.1-.4-.1l-.1 3.1zm14.9 2.3c.1-.1.3-.1.4-.2l.2-4.3c-.1 0-.3 0-.4.1l-.2 4.4zm2.5-4.9l-.2 3.5c.1-.1.3-.2.4-.3l.1-3.3s-.2.1-.3.1z" fill="#bfbfbf"/><path fill="#934603" d="M24.1 17.5c-2.4-.6-4.8.9-5.4 3.3-.2.7-.1 1.3 0 2 0-.2 0-.4.1-.6.6-2.4 2.9-3.5 5.1-3 2.2.5 3.5 2.4 2.9 4.8.2-.4.4-.8.5-1.2.6-2.3-.8-4.7-3.2-5.3zm-14.5.8c-1.8 0-3.3 1.4-3.3 3.2 0 .5.1 1 .3 1.4v-.4c0-1.8 1.4-2.9 3.1-2.9 1.7 0 3.1 1.1 3.1 2.9.1-.3.1-.6.1-.9 0-1.9-1.5-3.3-3.3-3.3z"/></svg>
