<svg xmlns="http://www.w3.org/2000/svg" viewBox="0 0 24 24"><path d="M10 20.9l-.7-.2c-1.2-.4-2.4-1-3.3-1.9l-.6-.5.4-.6c.4-.5.4-1.2 0-1.8-.4-.6-1-1-1.7-.9h-.6l-.2-.7c-.2-.6-.2-1.3-.2-2 0-.6.1-1.2.2-1.8l.2-.8.8.1c.5.1 1.2-.2 1.6-.8.4-.6.3-1.4-.1-1.9l-.5-.6.6-.5c1-.9 2.1-1.6 3.3-2l.8-.2.3.7c.2.6.9 1 1.7 1s1.4-.4 1.7-1l.3-.7.6.2c1.2.4 2.4 1 3.3 1.9l.6.5-.5.7c-.4.5-.4 1.3-.1 1.9.4.6 1 1 1.7.9l.8-.1.2.8c.1.6.2 1.2.2 1.8 0 .7-.1 1.4-.2 2l-.2.7-.8-.1c-.6-.1-1.3.3-1.7.9-.4.6-.3 1.3 0 1.8l.4.6-.6.5c-1 .8-2.1 1.5-3.3 1.8l-.7.2-.3-.7c-.3-.6-.9-.9-1.6-.9-.7 0-1.3.4-1.6.9l-.2.8zm1.9-3.3c1.1 0 2.1.5 2.7 1.2.6-.2 1.1-.5 1.5-.9-.4-.9-.3-2 .3-3s1.5-1.6 2.5-1.7c0-.3.1-.6.1-1v-.8c-1-.1-2-.8-2.5-1.7-.6-1-.6-2.1-.2-3.1-.5-.4-1-.6-1.5-.9-.6.8-1.7 1.4-2.8 1.4s-2.3-.4-2.9-1.2c-.6.2-1.1.5-1.5.8.4 1 .3 2.1-.2 3.1-.6 1-1.5 1.6-2.6 1.7v.8c0 .3 0 .6.1.9 1 .1 2 .8 2.5 1.7.5.9.6 2 .3 3 .5.4 1 .7 1.6.9.5-.8 1.5-1.2 2.6-1.2zm0-1c-2.4 0-4.3-1.9-4.3-4.3S9.5 8 11.9 8s4.3 1.9 4.3 4.3-1.9 4.3-4.3 4.3zm0-6.9c-1.5 0-2.6 1.2-2.6 2.6s1.2 2.6 2.6 2.6c1.5 0 2.6-1.2 2.6-2.6s-1.1-2.6-2.6-2.6z" fill="currentColor"/></svg>
