<svg xmlns="http://www.w3.org/2000/svg" viewBox="0 0 38 38"><path d="M22.4 28.1L20.9 26H17l-1.5 2.2c-3.9.9-6.6 3.3-6.6 6.1 0 .4.1.7.1 1 2.6 1.6 5.5 2.7 8.7 2.7h2.4c3.3 0 6.4-1.2 9-2.9.1-.3.1-.5.1-.8.1-2.9-2.8-5.3-6.8-6.2z" fill="#d7d7d7"/><path d="M24.2 28.6c-.3-.4-.7-.6-1.2-.6-.2 0-.4.1-.6.1l.1.1c.7.7 1.1 1.6 1.1 2.5 0 2.1-2.1 3.9-4.7 3.9s-4.7-1.7-4.7-3.9c0-.9.4-1.8 1-2.4l.2-.3c-.2-.1-.3-.3-.5-.3-.4 0-.8.3-1 .3-1.9 2-3.2 4.9-3.8 7.7 2.7 1.4 5.7 2.3 8.9 2.3s6.2-.7 8.9-2.1c-.7-2.8-2-5.3-3.7-7.3z" fill-rule="evenodd" clip-rule="evenodd" fill="#848383"/><path d="M29 16.2C29 10.8 24.6 6 19.1 6h-.3C13.3 6 9 10.8 9 16.2v7.1c0 .5.3.7.8.7h18.4c.5 0 .8-.2.8-.7V18c.1-1 0-1.1 0-1.6v-.2c0 .1 0 .1 0 0z" fill="#505050"/><path d="M21.4 18c-.1-1-.2-1-.4-1.5s-.4-1-.7-1.5l-1 2.7s-.2.3-.4.3H9.8c-.3 0-.8.5-.8.9v.8c0 1 1 2 2 2 1 2.3 2.8 4.3 4.9 5.6 1 .5 2.1.8 3.1.8 3.3 0 6.4-2.5 8.3-6.4.9-.2 1.7-1.1 1.7-2v-.8c0-.3-.3-.6-.5-.9-2.9.4-5.4.4-7.1 0z" fill="#f2f2f2"/></svg>