<svg version="1.1" id="图层_1" xmlns="http://www.w3.org/2000/svg" x="0" y="0" viewBox="0 0 38 38" xml:space="preserve"><style>.st2{fill:#fff}</style><path id="XMLID_41_" d="M7.2 33.9C10.4 36.5 14.5 38 19 38c4.5 0 8.6-1.5 11.8-4.1-2.8-3.9-7-6.8-11.8-7.7-4.9.9-9.1 3.7-11.8 7.7z" fill="#f77e4f"/><path id="XMLID_42_" fill="#f2e2d5" d="M15.5 27l3.5 7.4 3.5-7.4z"/><g id="XMLID_1_"><path id="XMLID_2_" class="st2" d="M22.2 26.9l-2.9 6.3c1.7.8 3.8.1 4.6-1.7.8-1.7 0-3.8-1.7-4.6z"/><path id="XMLID_5_" class="st2" d="M14.1 31.5c.8 1.7 2.9 2.5 4.6 1.7l-2.9-6.3c-1.8.8-2.5 2.9-1.7 4.6z"/></g><path id="XMLID_31_" d="M29.1 16c-.1-5.4-4.6-10-10-10h-.3c-5.4 0-9.8 4.5-9.9 9.9 0 .6.1 1.1.2 2.1h12.3l.1.1c1.8.5 4.2.4 7.3-.1.2-1 .3-1.4.3-2z" fill="#663d1c"/><path id="XMLID_33_" d="M28.2 17.9c-2.9.4-5.1.5-6.8.1-.1-.9-.2-1-.4-1.4-.2-.5-.4-1-.7-1.6l-1 2.7s-.2.4-.3.4h-8.9c-.7-.1-1.1.3-1.1.9v.8c0 1.1.8 2.2 1.9 2.2h.3c1 2 2.7 4.1 4.8 5.4 1 .5 2 .9 3.1.9 3.3 0 6.1-2.3 8-6.3h.1c1.1 0 1.9-1.2 1.9-2.2V19c-.1-.5-.4-1-.9-1.1z" fill="#f1d9c8"/></svg>