<svg xmlns="http://www.w3.org/2000/svg" viewBox="0 0 44 44"><path d="M25.4 8H12.7C10.1 8 8 10.2 8 12.8v9.8c0 2.6 2.1 4.4 4.7 4.4h.3v3.3l-.2.1c.1.5.4.9.9.9.2 0 .3-.3.4-.3l6.7-3.9h4.6c2.6 0 4.6-1.7 4.6-4.4v-9.8c0-2.7-2-4.9-4.6-4.9zm-.2 12c-1.1 2.3-3.3 3.8-5.9 3.8-2.6 0-4.8-1.5-5.9-3.9-.2-.4 0-.8.4-1 .4-.2.8 0 1 .4.8 1.8 2.6 3 4.5 3s3.6-1.1 4.5-2.9c.2-.4.6-.6 1-.4.4.2.5.6.4 1z" fill="currentColor"/><path d="M32.1 14.8c2.4 0 4.3 1.9 4.3 4.3v9.1c0 2.4-1.9 4.3-4.3 4.3h-.9v2.6c-.1.4-.4.8-.9.8-.2 0-.3 0-.4-.1L24 32.4h-3c-1.1 0-2.2-.5-3-1.2l2.3-1.9h6.4c3 0 5.4-2.4 5.4-5.4v-9.1z"/></svg>
