<svg xmlns="http://www.w3.org/2000/svg" viewBox="0 0 24 24"><path d="M11.8 5.1c-4 0-7.7 1.7-10.2 4.5l1.2 1.1c2.2-2.4 5.4-4 9-4 3.6 0 6.8 1.5 9 4L22 9.6c-2.5-2.7-6.2-4.5-10.2-4.5z" fill="currentColor"/><path d="M4.6 12.3l1.2 1.1c1.5-1.7 3.7-2.7 6.1-2.7 2.4 0 4.6 1 6.1 2.7l1.2-1.1c-1.8-2-4.4-3.2-7.3-3.2-3 0-5.6 1.3-7.3 3.2z" fill="currentColor"/><path d="M10.4 17.7l1.4 1.3 1.4-1.3c-.3-.4-.8-.6-1.4-.6-.5 0-1 .3-1.4.6z" fill="currentColor"/><path d="M11.8 13.1c-1.7 0-3.2.7-4.3 1.9l1.2 1.1c.8-.9 1.9-1.4 3.1-1.4 1.2 0 2.4.5 3.1 1.4l1.2-1.1c-1-1.1-2.6-1.9-4.3-1.9z" fill="currentColor"/></svg>
