<svg xmlns="http://www.w3.org/2000/svg" viewBox="0 0 100 100"><circle cx="49.8" cy="49.9" r="49" opacity=".06"/><path d="M71.8 36.6c-.2-12-10-21.6-22-21.6-11.8 0-21.3 9.4-21.9 21l.1 2v22c0 6.6 5.4 12 12 12h20c6.6 0 12-5.4 12-12V37l-.2-.4z" fill="#663d1c"/><path d="M75.4 76.9l-25.6-4-24.6 4c-4.6.6-8.4 3.5-10.2 7.5 8.9 9 21.2 14.5 34.8 14.5 14 0 26.6-5.8 35.5-15.2-2-3.6-5.6-6.3-9.9-6.8z" fill="#575857"/><path d="M71.4 42c-.7-.3-1.2-.5-1.8-.5-.6 0-1.2.1-1.7.3-2 1-4.2 1.5-6.5 1.5-4.4 0-8.4-2.2-11.1-5.2-.9-1-1.7-2.2-2.3-3.6v.2c-.1-.2-.3-.2-.5-.2s-.2-.5-.3.5c-.4 1-1.1 2-2 3s-2.1 2.3-3.1 2.9v.1h-.2c-1.7 1-3.6 1-5.5 1-1.5 0-3 0-4.4-1h-1.1c-.5.1-1 .2-1.5.4-.4.2-.7.5-1.2.8v-.1c-1.4 1.1-2.3 2.7-2.2 4.6.1 3 2.5 5.3 5.5 5.3h.6c1.8 7 6.1 12.6 11.1 15.2V79h14V67.2c5-2.7 9.1-8.3 10.9-15.2h.4c2.9 0 5.3-2.3 5.5-5.3-.1-2-1.1-3.7-2.6-4.7z" fill="#f2f2f2"/><path d="M53.8 79.6l-4-3.3-4 3.3 2.5 3.6-3.1 15.5c1.5.1 3 .2 4.6.2 1.5 0 3.1-.1 4.6-.2l-3.1-15.5 2.5-3.6z" fill="#f6b386"/><path d="M49.8 76.4l-5.5 6.5-7.4-8.3 6-5.4 6.9 6.9 6.9-6.9 6 5.4-7.4 8.4-5.5-6.6z" fill="#fff"/></svg>
